<svg xmlns="http://www.w3.org/2000/svg" width="374" height="60" viewBox="0 0 374 60">
  <g id="PinkDots" transform="translate(-3 -3388)">
    <g id="Group_27" data-name="Group 27" transform="translate(6 -5)">
      <g id="Group_21" data-name="Group 21" transform="translate(-1750.253 1814.583)">
        <circle id="Ellipse_242" data-name="Ellipse 242" cx="6" cy="6" r="6" transform="translate(1747.252 1578.417)"
                fill="#e6007a"/>
        <circle id="Ellipse_243" data-name="Ellipse 243" cx="6" cy="6" r="6" transform="translate(1747.252 1610.417)"
                fill="#e6007a"/>
        <ellipse id="Ellipse_246" data-name="Ellipse 246" cx="6.5" cy="6" rx="6.5" ry="6"
                 transform="translate(1764.252 1578.417)" fill="#e6007a"/>
        <ellipse id="Ellipse_247" data-name="Ellipse 247" cx="6.5" cy="6" rx="6.5" ry="6"
                 transform="translate(1764.252 1610.417)" fill="#e6007a"/>
        <circle id="Ellipse_260" data-name="Ellipse 260" cx="6" cy="6" r="6" transform="translate(1747.252 1594.417)"
                fill="#e6007a"/>
        <circle id="Ellipse_261" data-name="Ellipse 261" cx="6" cy="6" r="6" transform="translate(1747.252 1626.417)"
                fill="#e6007a"/>
        <ellipse id="Ellipse_264" data-name="Ellipse 264" cx="6.5" cy="6" rx="6.5" ry="6"
                 transform="translate(1764.252 1594.417)" fill="#e6007a"/>
        <ellipse id="Ellipse_265" data-name="Ellipse 265" cx="6.5" cy="6" rx="6.5" ry="6"
                 transform="translate(1764.252 1626.417)" fill="#e6007a"/>
        <ellipse id="Ellipse_256" data-name="Ellipse 256" cx="6.5" cy="6" rx="6.5" ry="6"
                 transform="translate(1850.252 1578.417)" fill="#e6007a"/>
        <ellipse id="Ellipse_257" data-name="Ellipse 257" cx="6.5" cy="6" rx="6.5" ry="6"
                 transform="translate(1850.252 1610.417)" fill="#e6007a"/>
        <ellipse id="Ellipse_274" data-name="Ellipse 274" cx="6.5" cy="6" rx="6.5" ry="6"
                 transform="translate(1850.252 1594.417)" fill="#e6007a"/>
        <ellipse id="Ellipse_275" data-name="Ellipse 275" cx="6.5" cy="6" rx="6.5" ry="6"
                 transform="translate(1850.252 1626.417)" fill="#e6007a"/>
        <circle id="Ellipse_252" data-name="Ellipse 252" cx="6" cy="6" r="6" transform="translate(1867.252 1578.417)"
                fill="#e6007a"/>
        <circle id="Ellipse_253" data-name="Ellipse 253" cx="6" cy="6" r="6" transform="translate(1867.252 1610.417)"
                fill="#e6007a"/>
        <ellipse id="Ellipse_258" data-name="Ellipse 258" cx="6.5" cy="6" rx="6.5" ry="6"
                 transform="translate(1884.252 1578.417)" fill="#e6007a"/>
        <ellipse id="Ellipse_259" data-name="Ellipse 259" cx="6.5" cy="6" rx="6.5" ry="6"
                 transform="translate(1884.252 1610.417)" fill="#e6007a"/>
        <circle id="Ellipse_270" data-name="Ellipse 270" cx="6" cy="6" r="6" transform="translate(1867.252 1594.417)"
                fill="#e6007a"/>
        <circle id="Ellipse_271" data-name="Ellipse 271" cx="6" cy="6" r="6" transform="translate(1867.252 1626.417)"
                fill="#e6007a"/>
        <ellipse id="Ellipse_276" data-name="Ellipse 276" cx="6.5" cy="6" rx="6.5" ry="6"
                 transform="translate(1884.252 1594.417)" fill="#e6007a"/>
        <ellipse id="Ellipse_277" data-name="Ellipse 277" cx="6.5" cy="6" rx="6.5" ry="6"
                 transform="translate(1884.252 1626.417)" fill="#e6007a"/>
        <circle id="Ellipse_244" data-name="Ellipse 244" cx="6" cy="6" r="6" transform="translate(1782.252 1578.417)"
                fill="#e6007a"/>
        <circle id="Ellipse_245" data-name="Ellipse 245" cx="6" cy="6" r="6" transform="translate(1782.252 1610.417)"
                fill="#e6007a"/>
        <circle id="Ellipse_248" data-name="Ellipse 248" cx="6" cy="6" r="6" transform="translate(1799.252 1578.417)"
                fill="#e6007a"/>
        <circle id="Ellipse_249" data-name="Ellipse 249" cx="6" cy="6" r="6" transform="translate(1799.252 1610.417)"
                fill="#e6007a"/>
        <circle id="Ellipse_262" data-name="Ellipse 262" cx="6" cy="6" r="6" transform="translate(1782.252 1594.417)"
                fill="#e6007a"/>
        <circle id="Ellipse_263" data-name="Ellipse 263" cx="6" cy="6" r="6" transform="translate(1782.252 1626.417)"
                fill="#e6007a"/>
        <circle id="Ellipse_266" data-name="Ellipse 266" cx="6" cy="6" r="6" transform="translate(1799.252 1594.417)"
                fill="#e6007a"/>
        <circle id="Ellipse_267" data-name="Ellipse 267" cx="6" cy="6" r="6" transform="translate(1799.252 1626.417)"
                fill="#e6007a"/>
        <circle id="Ellipse_250" data-name="Ellipse 250" cx="6" cy="6" r="6" transform="translate(1833.252 1578.417)"
                fill="#e6007a"/>
        <circle id="Ellipse_251" data-name="Ellipse 251" cx="6" cy="6" r="6" transform="translate(1833.252 1610.417)"
                fill="#e6007a"/>
        <circle id="Ellipse_268" data-name="Ellipse 268" cx="6" cy="6" r="6" transform="translate(1833.252 1594.417)"
                fill="#e6007a"/>
        <circle id="Ellipse_269" data-name="Ellipse 269" cx="6" cy="6" r="6" transform="translate(1833.252 1626.417)"
                fill="#e6007a"/>
        <circle id="Ellipse_254" data-name="Ellipse 254" cx="6" cy="6" r="6" transform="translate(1816.252 1578.417)"
                fill="#e6007a"/>
        <circle id="Ellipse_255" data-name="Ellipse 255" cx="6" cy="6" r="6" transform="translate(1816.252 1610.417)"
                fill="#e6007a"/>
        <circle id="Ellipse_272" data-name="Ellipse 272" cx="6" cy="6" r="6" transform="translate(1816.252 1594.417)"
                fill="#e6007a"/>
        <circle id="Ellipse_273" data-name="Ellipse 273" cx="6" cy="6" r="6" transform="translate(1816.252 1626.417)"
                fill="#e6007a"/>
      </g>
      <g id="Group_22" data-name="Group 22" transform="translate(-1526.253 1814.583)">
        <ellipse id="Ellipse_234" data-name="Ellipse 234" cx="6.5" cy="6" rx="6.5" ry="6"
                 transform="translate(1712.252 1578.417)" fill="#e6007a"/>
        <ellipse id="Ellipse_235" data-name="Ellipse 235" cx="6.5" cy="6" rx="6.5" ry="6"
                 transform="translate(1712.252 1610.417)" fill="#e6007a"/>
        <ellipse id="Ellipse_236" data-name="Ellipse 236" cx="6.5" cy="6" rx="6.5" ry="6"
                 transform="translate(1712.252 1594.417)" fill="#e6007a"/>
        <ellipse id="Ellipse_237" data-name="Ellipse 237" cx="6.5" cy="6" rx="6.5" ry="6"
                 transform="translate(1712.252 1626.417)" fill="#e6007a"/>
        <circle id="Ellipse_238" data-name="Ellipse 238" cx="6" cy="6" r="6" transform="translate(1730.252 1578.417)"
                fill="#e6007a"/>
        <circle id="Ellipse_239" data-name="Ellipse 239" cx="6" cy="6" r="6" transform="translate(1730.252 1610.417)"
                fill="#e6007a"/>
        <circle id="Ellipse_240" data-name="Ellipse 240" cx="6" cy="6" r="6" transform="translate(1730.252 1594.417)"
                fill="#e6007a"/>
        <circle id="Ellipse_241" data-name="Ellipse 241" cx="6" cy="6" r="6" transform="translate(1730.252 1626.417)"
                fill="#e6007a"/>
        <circle id="Ellipse_242-2" data-name="Ellipse 242" cx="6" cy="6" r="6" transform="translate(1747.252 1578.417)"
                fill="#e6007a"/>
        <circle id="Ellipse_243-2" data-name="Ellipse 243" cx="6" cy="6" r="6" transform="translate(1747.252 1610.417)"
                fill="#e6007a"/>
        <ellipse id="Ellipse_246-2" data-name="Ellipse 246" cx="6.5" cy="6" rx="6.5" ry="6"
                 transform="translate(1764.252 1578.417)" fill="#e6007a"/>
        <ellipse id="Ellipse_247-2" data-name="Ellipse 247" cx="6.5" cy="6" rx="6.5" ry="6"
                 transform="translate(1764.252 1610.417)" fill="#e6007a"/>
        <circle id="Ellipse_260-2" data-name="Ellipse 260" cx="6" cy="6" r="6" transform="translate(1747.252 1594.417)"
                fill="#e6007a"/>
        <circle id="Ellipse_261-2" data-name="Ellipse 261" cx="6" cy="6" r="6" transform="translate(1747.252 1626.417)"
                fill="#e6007a"/>
        <ellipse id="Ellipse_264-2" data-name="Ellipse 264" cx="6.5" cy="6" rx="6.5" ry="6"
                 transform="translate(1764.252 1594.417)" fill="#e6007a"/>
        <ellipse id="Ellipse_265-2" data-name="Ellipse 265" cx="6.5" cy="6" rx="6.5" ry="6"
                 transform="translate(1764.252 1626.417)" fill="#e6007a"/>
        <ellipse id="Ellipse_226" data-name="Ellipse 226" cx="6.5" cy="6" rx="6.5" ry="6"
                 transform="translate(1678.252 1578.417)" fill="#e6007a"/>
        <ellipse id="Ellipse_227" data-name="Ellipse 227" cx="6.5" cy="6" rx="6.5" ry="6"
                 transform="translate(1678.252 1610.417)" fill="#e6007a"/>
        <ellipse id="Ellipse_228" data-name="Ellipse 228" cx="6.5" cy="6" rx="6.5" ry="6"
                 transform="translate(1678.252 1594.417)" fill="#e6007a"/>
        <ellipse id="Ellipse_229" data-name="Ellipse 229" cx="6.5" cy="6" rx="6.5" ry="6"
                 transform="translate(1678.252 1626.417)" fill="#e6007a"/>
        <circle id="Ellipse_230" data-name="Ellipse 230" cx="6" cy="6" r="6" transform="translate(1695.252 1578.417)"
                fill="#e6007a"/>
        <circle id="Ellipse_231" data-name="Ellipse 231" cx="6" cy="6" r="6" transform="translate(1695.252 1610.417)"
                fill="#e6007a"/>
        <circle id="Ellipse_232" data-name="Ellipse 232" cx="6" cy="6" r="6" transform="translate(1695.252 1594.417)"
                fill="#e6007a"/>
        <circle id="Ellipse_233" data-name="Ellipse 233" cx="6" cy="6" r="6" transform="translate(1695.252 1626.417)"
                fill="#e6007a"/>
        <ellipse id="Ellipse_256-2" data-name="Ellipse 256" cx="6.5" cy="6" rx="6.5" ry="6"
                 transform="translate(1850.252 1578.417)" fill="#e6007a"/>
        <ellipse id="Ellipse_257-2" data-name="Ellipse 257" cx="6.5" cy="6" rx="6.5" ry="6"
                 transform="translate(1850.252 1610.417)" fill="#e6007a"/>
        <ellipse id="Ellipse_274-2" data-name="Ellipse 274" cx="6.5" cy="6" rx="6.5" ry="6"
                 transform="translate(1850.252 1594.417)" fill="#e6007a"/>
        <ellipse id="Ellipse_275-2" data-name="Ellipse 275" cx="6.5" cy="6" rx="6.5" ry="6"
                 transform="translate(1850.252 1626.417)" fill="#e6007a"/>
        <circle id="Ellipse_252-2" data-name="Ellipse 252" cx="6" cy="6" r="6" transform="translate(1867.252 1578.417)"
                fill="#e6007a"/>
        <circle id="Ellipse_253-2" data-name="Ellipse 253" cx="6" cy="6" r="6" transform="translate(1867.252 1610.417)"
                fill="#e6007a"/>
        <ellipse id="Ellipse_258-2" data-name="Ellipse 258" cx="6.5" cy="6" rx="6.5" ry="6"
                 transform="translate(1884.252 1578.417)" fill="#e6007a"/>
        <ellipse id="Ellipse_259-2" data-name="Ellipse 259" cx="6.5" cy="6" rx="6.5" ry="6"
                 transform="translate(1884.252 1610.417)" fill="#e6007a"/>
        <circle id="Ellipse_270-2" data-name="Ellipse 270" cx="6" cy="6" r="6" transform="translate(1867.252 1594.417)"
                fill="#e6007a"/>
        <circle id="Ellipse_271-2" data-name="Ellipse 271" cx="6" cy="6" r="6" transform="translate(1867.252 1626.417)"
                fill="#e6007a"/>
        <ellipse id="Ellipse_276-2" data-name="Ellipse 276" cx="6.5" cy="6" rx="6.5" ry="6"
                 transform="translate(1884.252 1594.417)" fill="#e6007a"/>
        <ellipse id="Ellipse_277-2" data-name="Ellipse 277" cx="6.5" cy="6" rx="6.5" ry="6"
                 transform="translate(1884.252 1626.417)" fill="#e6007a"/>
        <circle id="Ellipse_244-2" data-name="Ellipse 244" cx="6" cy="6" r="6" transform="translate(1782.252 1578.417)"
                fill="#e6007a"/>
        <circle id="Ellipse_245-2" data-name="Ellipse 245" cx="6" cy="6" r="6" transform="translate(1782.252 1610.417)"
                fill="#e6007a"/>
        <circle id="Ellipse_248-2" data-name="Ellipse 248" cx="6" cy="6" r="6" transform="translate(1799.252 1578.417)"
                fill="#e6007a"/>
        <circle id="Ellipse_249-2" data-name="Ellipse 249" cx="6" cy="6" r="6" transform="translate(1799.252 1610.417)"
                fill="#e6007a"/>
        <circle id="Ellipse_262-2" data-name="Ellipse 262" cx="6" cy="6" r="6" transform="translate(1782.252 1594.417)"
                fill="#e6007a"/>
        <circle id="Ellipse_263-2" data-name="Ellipse 263" cx="6" cy="6" r="6" transform="translate(1782.252 1626.417)"
                fill="#e6007a"/>
        <circle id="Ellipse_266-2" data-name="Ellipse 266" cx="6" cy="6" r="6" transform="translate(1799.252 1594.417)"
                fill="#e6007a"/>
        <circle id="Ellipse_267-2" data-name="Ellipse 267" cx="6" cy="6" r="6" transform="translate(1799.252 1626.417)"
                fill="#e6007a"/>
        <circle id="Ellipse_250-2" data-name="Ellipse 250" cx="6" cy="6" r="6" transform="translate(1833.252 1578.417)"
                fill="#e6007a"/>
        <circle id="Ellipse_251-2" data-name="Ellipse 251" cx="6" cy="6" r="6" transform="translate(1833.252 1610.417)"
                fill="#e6007a"/>
        <circle id="Ellipse_268-2" data-name="Ellipse 268" cx="6" cy="6" r="6" transform="translate(1833.252 1594.417)"
                fill="#e6007a"/>
        <circle id="Ellipse_269-2" data-name="Ellipse 269" cx="6" cy="6" r="6" transform="translate(1833.252 1626.417)"
                fill="#e6007a"/>
        <circle id="Ellipse_254-2" data-name="Ellipse 254" cx="6" cy="6" r="6" transform="translate(1816.252 1578.417)"
                fill="#e6007a"/>
        <circle id="Ellipse_255-2" data-name="Ellipse 255" cx="6" cy="6" r="6" transform="translate(1816.252 1610.417)"
                fill="#e6007a"/>
        <circle id="Ellipse_272-2" data-name="Ellipse 272" cx="6" cy="6" r="6" transform="translate(1816.252 1594.417)"
                fill="#e6007a"/>
        <circle id="Ellipse_273-2" data-name="Ellipse 273" cx="6" cy="6" r="6" transform="translate(1816.252 1626.417)"
                fill="#e6007a"/>
      </g>
    </g>
  </g>
</svg>
