<svg xmlns="http://www.w3.org/2000/svg" viewBox="0 0 116.44 105.32"><defs><style>.cls-1{fill:#fff;}.cls-2{fill:#e6007a;}</style></defs><g id="Layer_2" data-name="Layer 2"><g id="Layer_2-2" data-name="Layer 2"><circle class="cls-1" cx="57.46" cy="52.66" r="46.37"/><ellipse class="cls-2" cx="76.47" cy="45.54" rx="5.92" ry="3.15" transform="translate(-7.98 17.44) rotate(-12.37)"/><ellipse class="cls-2" cx="38.38" cy="45.54" rx="3.15" ry="5.92" transform="translate(-14.33 73.27) rotate(-77.63)"/><ellipse class="cls-2" cx="24.15" cy="66.78" rx="2.28" ry="3.83" transform="translate(-29.09 19.79) rotate(-28.69)"/><ellipse class="cls-2" cx="28.87" cy="75.08" rx="1.61" ry="2.74" transform="translate(-41.54 36.19) rotate(-40.05)"/><ellipse class="cls-2" cx="22.84" cy="44.36" rx="3.83" ry="2.28" transform="translate(-27.05 43.85) rotate(-62.17)"/><ellipse class="cls-2" cx="27.69" cy="34.36" rx="2.74" ry="1.61" transform="translate(-16.43 33.44) rotate(-49.95)"/><ellipse class="cls-2" cx="32.87" cy="27.69" rx="1.93" ry="1.13" transform="translate(-9.48 35.03) rotate(-49.95)"/><ellipse class="cls-2" cx="37.68" cy="23.23" rx="1.63" ry="0.96" transform="translate(-4.35 37.12) rotate(-49.95)"/><ellipse class="cls-2" cx="46.62" cy="23.92" rx="2.74" ry="1.61" transform="translate(-1.69 44.21) rotate(-49.95)"/><ellipse class="cls-2" cx="21.91" cy="55.86" rx="5.11" ry="3.08" transform="translate(-35.42 73.55) rotate(-85.74)"/><ellipse class="cls-2" cx="68.39" cy="23.92" rx="1.59" ry="2.72" transform="translate(0.14 48.23) rotate(-38.88)"/><ellipse class="cls-2" cx="92.54" cy="66.78" rx="3.82" ry="2.24" transform="translate(-9.58 117.72) rotate(-62.33)"/><ellipse class="cls-2" cx="87.91" cy="75.08" rx="2.72" ry="1.59" transform="translate(-25.71 96.39) rotate(-51.12)"/><ellipse class="cls-2" cx="93.82" cy="44.36" rx="2.24" ry="3.82" transform="translate(-9.92 47.14) rotate(-26.84)"/><ellipse class="cls-2" cx="89.07" cy="34.36" rx="1.59" ry="2.72" transform="translate(-1.83 63.52) rotate(-38.88)"/><ellipse class="cls-2" cx="84" cy="27.69" rx="1.12" ry="1.92" transform="translate(1.22 58.86) rotate(-38.88)"/><ellipse class="cls-2" cx="79.28" cy="23.23" rx="0.94" ry="1.62" transform="translate(2.98 54.91) rotate(-38.88)"/><ellipse class="cls-2" cx="94.73" cy="55.86" rx="3.02" ry="5.11" transform="translate(-3.74 6.89) rotate(-4.09)"/><path class="cls-2" d="M58.22,105.32C26.12,105.32,0,81.7,0,52.66S26.12,0,58.22,0s58.22,23.62,58.22,52.66S90.32,105.32,58.22,105.32Zm0-93.92c-25.15,0-45.61,18.51-45.61,41.26S33.07,93.92,58.22,93.92s45.61-18.51,45.61-41.26S83.37,11.4,58.22,11.4Z"/><path class="cls-2" d="M63,88.36a24.72,24.72,0,0,1-3.65.42c-.63,0-1.26,0-1.88,0v1.87l.14,0c1-.19,2.11-.28,3.15-.49a4.94,4.94,0,0,0,2.74-1.11c.15-.16.45-.34.32-.54S63.31,88.3,63,88.36Z"/><path class="cls-2" d="M69.39,85.23a.26.26,0,0,0-.17-.11c-.89-.16-1.8-.27-2.68-.46a11,11,0,0,1-3.35-1,8.47,8.47,0,0,0-2.51-1,2.47,2.47,0,0,1-1.15-.39,2.7,2.7,0,0,1-1-2c0-.43-.26-.94.13-1.3a6.62,6.62,0,0,1,2.48-1.17c.15,0,.31-.09.31-.22s-.2-.18-.33-.2c-.47-.06-.38-.28-.23-.51s.21-.28.31-.43a6.52,6.52,0,0,1,3.26-2.75A15,15,0,0,0,68,71.63a1,1,0,0,0,.14-.2,1.39,1.39,0,0,0-.26-.1c-.51-.06-.69-.25-.27-.58a.9.9,0,0,0,.12-1.49c-.07-.08-.09-.2-.17-.26A2.71,2.71,0,0,0,66,68.28a10.41,10.41,0,0,0-2.76.45,26.77,26.77,0,0,1-5,.83,8.1,8.1,0,0,1-.85,0v9.48c.09,0,.17.07.19.15a5.42,5.42,0,0,1,.14,1.88.37.37,0,0,1-.33.26v2.93h1c.58,0,1.13-.11,1.24-.71,0-.09.09-.1.18-.09s.15,0,.19.08a2.34,2.34,0,0,0,1.23,1.08,5.6,5.6,0,0,1,1.7,1,1.38,1.38,0,0,0,1.31.46,1.14,1.14,0,0,1,1,.29,3.57,3.57,0,0,1,1,.15h0a3.93,3.93,0,0,0,2.68-1,1.81,1.81,0,0,1,.32-.22S69.4,85.26,69.39,85.23Z"/><path class="cls-2" d="M88,41.42a4.09,4.09,0,0,1-2,.53c-1.59,0-3.1-.48-4.68-.54a26.93,26.93,0,0,0-4.5-.23,13.6,13.6,0,0,0-4.64,1.16c-.29.14-.35,0-.36-.19,0-1.39.09-2.78-.07-4.17-.13-1.15-.16-2.32-.28-3.48a6.62,6.62,0,0,0-.79-3.17,5.44,5.44,0,0,0-1.51-.93c-.88,0-2,.68-2.08,1.38a17.14,17.14,0,0,0,.08,3.36A23.08,23.08,0,0,0,68,38.58a16.53,16.53,0,0,0,.81,2.8,8.38,8.38,0,0,1,.73,1.69c0,.17.1.4-.08.51a3.71,3.71,0,0,1-.6,1.6l-.06.08a5,5,0,0,1-.22.87,2.1,2.1,0,0,1-.11,1,18.23,18.23,0,0,0-.67,4.8,21.06,21.06,0,0,0,0,3.37,29,29,0,0,0,.73,4.6,5,5,0,0,0,1.64,2.79,27.77,27.77,0,0,1,3.18,3.14A15.71,15.71,0,0,1,76.26,70a8.44,8.44,0,0,1,.88,3,8.68,8.68,0,0,1-.22,2,4.05,4.05,0,0,1-.61,1.52,10.88,10.88,0,0,1-1.7,2,4.55,4.55,0,0,1-2,1.23,13.93,13.93,0,0,1-2.1.39c.06.06.09.12.14.13.54.08,1.08.2,1.62.23a11.66,11.66,0,0,0,2.63-.3l.06,0,.09,0s0,.06,0,.09l0,0c-.41.59-.76,1.22-1.23,1.78-1.08,1.32-1,2.45.2,3.45.34-.52.66-1,1-1.56a3.75,3.75,0,0,0,.8-1.56A2.83,2.83,0,0,1,77,80.58c.46-.35,1-.6,1.33-1.1s.5-.77.76-1.16a7.55,7.55,0,0,0,1.48-3.93c.08-1.67-.31-3.33-.37-5A3.21,3.21,0,0,0,80,68.06a12.23,12.23,0,0,0-1.72-2.52,6.34,6.34,0,0,1-.78-1,2.34,2.34,0,0,1-.45-.37,1.82,1.82,0,0,1-.27-.15,1.27,1.27,0,0,1-.25-.21l0,0c-.06-.06-.16-.13-.16-.19a.43.43,0,0,0,0,0c-.11-.13-.21-.27-.31-.4l0,0a5.86,5.86,0,0,1-1.85-2,2.1,2.1,0,0,0-2.2-1.49c-.24,0-.23-.21-.19-.35s.25-.12.39-.1.37.14.44,0a.4.4,0,0,0-.08-.54,2.64,2.64,0,0,1-1.13-2.49,5.19,5.19,0,0,0-.21-1.07,4.23,4.23,0,0,1-.29-1.77A13.25,13.25,0,0,0,71,50.54a2.2,2.2,0,0,1,.19-.87.28.28,0,0,1,.28-.18h.11a.63.63,0,0,1,.58-.08,8.29,8.29,0,0,1,1.19.3,1.64,1.64,0,0,1,.31.22l.22.07c1.41.62,2.72,0,3.92-.42a9.77,9.77,0,0,0,2.71-1.82,19.58,19.58,0,0,0,2-2.23c.92-1,1.6-2.14,3.21-2.51a5.74,5.74,0,0,0,1.17-.57h0l.76-.53a1.81,1.81,0,0,0,.45-.52ZM79.7,45.93a5.62,5.62,0,0,1-2.36,2.32,4.6,4.6,0,0,1-1.8.18,9.22,9.22,0,0,1-2.93-.54,8,8,0,0,0-1.09-.19c-.39,0-.46-.25-.39-.5.14-.47.32-.93.48-1.4,0-.14.13-.14.26-.12a21.79,21.79,0,0,0,5,.07c.83-.1,1.67-.16,2.5-.23C79.83,45.48,79.84,45.73,79.7,45.93Zm2.17-.67c-.21.15-.54.17-.62.45a.4.4,0,0,1-.21,0s-.07-.13-.05-.15c.39-.33.61-.83,1.29-.93A.74.74,0,0,1,81.87,45.26Z"/><path class="cls-2" d="M57.62,79.06V69.58a7.85,7.85,0,0,1-.84,0,26.73,26.73,0,0,1-5-.83,10.41,10.41,0,0,0-2.76-.45A2.71,2.71,0,0,0,47.5,69c-.08.06-.1.18-.17.26a.9.9,0,0,0,.12,1.49c.42.33.24.52-.27.58a1.39,1.39,0,0,0-.26.1,1,1,0,0,0,.14.2,15,15,0,0,0,3.55,2.06,6.54,6.54,0,0,1,3.27,2.75c.09.15.21.28.31.43s.23.45-.23.51c-.14,0-.34.06-.34.2s.16.18.31.22A6.54,6.54,0,0,1,56.41,79c.39.36.18.87.13,1.3a2.7,2.7,0,0,1-1,2,2.47,2.47,0,0,1-1.14.39,8.42,8.42,0,0,0-2.52,1,11,11,0,0,1-3.35,1c-.88.19-1.79.3-2.68.46a.22.22,0,0,0-.16.11s0,.1.09.14a1.29,1.29,0,0,1,.32.22,3.67,3.67,0,0,0,2.52.94,9.42,9.42,0,0,1,1.29-.23,1.16,1.16,0,0,1,.89-.18,1.38,1.38,0,0,0,1.31-.46,5.6,5.6,0,0,1,1.7-1,2.37,2.37,0,0,0,1.24-1.08c0-.08.1-.08.18-.08s.17,0,.19.09c.11.6.66.71,1.23.71h1V81.35a.37.37,0,0,1-.33-.26,6,6,0,0,1,.14-1.88C57.45,79.13,57.53,79.09,57.62,79.06Z"/><path class="cls-2" d="M55.74,88.78a24.88,24.88,0,0,1-3.65-.42c-.31-.06-.66-.09-.82.15s.17.38.32.54a5,5,0,0,0,2.74,1.11c1,.21,2.11.3,3.16.49l.13,0V88.8C57,88.82,56.37,88.82,55.74,88.78Z"/><path class="cls-2" d="M48,31.78c-.05-.7-1.21-1.38-2.08-1.38a5.65,5.65,0,0,0-1.52.93,6.74,6.74,0,0,0-.79,3.17c-.12,1.16-.14,2.33-.28,3.48-.16,1.39,0,2.78-.07,4.17,0,.24-.07.33-.35.19a13.66,13.66,0,0,0-4.64-1.16,27,27,0,0,0-4.51.23c-1.58.06-3.09.53-4.67.54a3.66,3.66,0,0,1-1-.14c.1.1.2.21.29.32s.36.23.54.35l.09.09a3.7,3.7,0,0,1,.43.25.84.84,0,0,1,.34.25l.16.09c1.28.47,1.91,1.51,2.74,2.37a19.58,19.58,0,0,0,1.95,2.23,9.82,9.82,0,0,0,2.72,1.82c1.19.4,2.5,1,3.91.42a1,1,0,0,0,.27-.1.27.27,0,0,1,.27-.08A.9.9,0,0,1,42,49.7a1.78,1.78,0,0,1,1.52-.21h.11a.29.29,0,0,1,.29.18,2.37,2.37,0,0,1,.18.87,13.25,13.25,0,0,0,.15,2.81A4.23,4.23,0,0,1,44,55.12a6,6,0,0,0-.21,1.07,2.62,2.62,0,0,1-1.13,2.49.4.4,0,0,0-.08.54c.07.16.28,0,.44,0s.35-.1.4.1,0,.35-.2.35A2.1,2.1,0,0,0,41,61.18a5.56,5.56,0,0,1-1.78,1.91.79.79,0,0,1-.12.15,2.75,2.75,0,0,1-.26.22.75.75,0,0,0,0,.16c0,.06-.1.13-.16.19l-.13-.1a4,4,0,0,0-.82.69,6,6,0,0,1-.84,1.14,12.23,12.23,0,0,0-1.72,2.52,3.21,3.21,0,0,0-.25,1.33c-.06,1.67-.45,3.33-.37,5A7.55,7.55,0,0,0,36,78.32c.26.39.53.76.76,1.16s.87.75,1.33,1.1a2.83,2.83,0,0,1,1.24,1.8,3.75,3.75,0,0,0,.8,1.56c.37.51.69,1,1,1.56,1.25-1,1.28-2.13.2-3.45a20.79,20.79,0,0,1-1.22-1.78l-.05,0s0-.06,0-.09l.09,0,.06,0a11.66,11.66,0,0,0,2.63.3c.55,0,1.08-.15,1.63-.23,0,0,.07-.07.14-.13a13.84,13.84,0,0,1-2.11-.39,4.55,4.55,0,0,1-2-1.23,11.28,11.28,0,0,1-1.7-2A4.05,4.05,0,0,1,38.16,75a6.74,6.74,0,0,1,.66-5,15.75,15.75,0,0,1,2.89-4.2,26.88,26.88,0,0,1,3.17-3.14,5,5,0,0,0,1.64-2.79,29,29,0,0,0,.73-4.6,20,20,0,0,0,0-3.37,17.82,17.82,0,0,0-.67-4.8,2,2,0,0,1-.11-.92.21.21,0,0,1,0-.08c0-.12,0-.23,0-.35-.17-.4-.33-.81-.49-1.22s-.37-.62-.52-.95a.44.44,0,0,1,.07-.52,9,9,0,0,1,.73-1.69,15.66,15.66,0,0,0,.81-2.8,23.08,23.08,0,0,0,.78-3.44A18,18,0,0,0,48,31.78ZM34,45.74c-.06,0-.2,0-.2,0-.09-.28-.42-.3-.63-.45a.74.74,0,0,1-.41-.6c.68.1.9.6,1.29.93C34.11,45.61,34.07,45.73,34,45.74Zm9.53,2a8.16,8.16,0,0,0-1.1.19,9.22,9.22,0,0,1-2.93.54,4.6,4.6,0,0,1-1.8-.18,5.62,5.62,0,0,1-2.36-2.32c-.13-.2-.13-.45.29-.41.84.07,1.67.13,2.5.23a21.79,21.79,0,0,0,5-.07c.13,0,.22,0,.26.12.16.47.34.93.48,1.4C44,47.45,44,47.66,43.57,47.7Z"/></g></g></svg>