<svg xmlns="http://www.w3.org/2000/svg" viewBox="0 0 616.44 57.39"><defs><style>.cls-1{fill:#e6007a;}.cls-2{fill:#020202;}</style></defs><g id="Layer_2" data-name="Layer 2"><g id="Layer_2-2" data-name="Layer 2"><path d="M7.87,38.9V32h21A10.47,10.47,0,0,0,36,29.63a7.89,7.89,0,0,0,2.7-6.28A7.93,7.93,0,0,0,36,17a10.56,10.56,0,0,0-7.1-2.3H9.15V54.74H0V7.43H28.27a28.09,28.09,0,0,1,7.62,1,19.1,19.1,0,0,1,6.23,3,13.56,13.56,0,0,1,4.17,4.92,15.57,15.57,0,0,1,1.49,7.05,15.34,15.34,0,0,1-1.49,7,13,13,0,0,1-4.17,4.85A18.88,18.88,0,0,1,35.89,38a30.73,30.73,0,0,1-7.62.91Z"/><path d="M108.24,3.78h8.92v51h-8.92Z"/><path d="M128.8,3.78h8.91v51H128.8Zm40.07,14.6-22.4,18.69.24-5.11,23.85,22.78H159.15L138,34.37l18.54-16Z"/><path d="M192,55.54a20.94,20.94,0,0,1-10-2.41,18.83,18.83,0,0,1-7.23-6.68,18,18,0,0,1-2.69-9.82,18.1,18.1,0,0,1,2.73-10A18.93,18.93,0,0,1,182.2,20a22.34,22.34,0,0,1,10.44-2.41q6.42,0,10.2,2.56A14,14,0,0,1,208.22,27a27.4,27.4,0,0,1,1.6,9.63,22.74,22.74,0,0,1-1,6.32,20.21,20.21,0,0,1-3,6.17,15.41,15.41,0,0,1-5.46,4.63A17.83,17.83,0,0,1,192,55.54Zm2.73-6.71a17.25,17.25,0,0,0,7.67-1.57,11.21,11.21,0,0,0,4.81-4.35,12,12,0,0,0,1.65-6.28,12.29,12.29,0,0,0-1.69-6.6,11.13,11.13,0,0,0-4.81-4.24,17.71,17.71,0,0,0-7.63-1.49c-4.29,0-7.6,1.14-10,3.43a11.83,11.83,0,0,0-3.53,8.9A11.79,11.79,0,0,0,183,43a11.65,11.65,0,0,0,4.78,4.3A15.4,15.4,0,0,0,194.73,48.83Zm14.13-30.45h9V54.74H209.5c-.21-1.85-.37-3.44-.48-4.78s-.16-2.62-.16-3.84Z"/><path d="M245.48,55.54a21.08,21.08,0,0,1-10.08-2.41,18.12,18.12,0,0,1-9.84-16.5,18.73,18.73,0,0,1,2.61-10A18.39,18.39,0,0,1,235.24,20a21.14,21.14,0,0,1,10.24-2.41,21.36,21.36,0,0,1,8.51,1.5,13.58,13.58,0,0,1,5.46,4.09,16.82,16.82,0,0,1,2.93,6,28.83,28.83,0,0,1,.92,7.44,22.74,22.74,0,0,1-1,6.32,20.21,20.21,0,0,1-3,6.17,15.41,15.41,0,0,1-5.46,4.63A17.85,17.85,0,0,1,245.48,55.54Zm2.73-6.71a17.28,17.28,0,0,0,7.67-1.57,11.26,11.26,0,0,0,4.81-4.35,12,12,0,0,0,1.65-6.28,12.29,12.29,0,0,0-1.69-6.6,11.29,11.29,0,0,0-4.82-4.27,17.22,17.22,0,0,0-7.62-1.54q-6.44,0-10,3.47a12,12,0,0,0-3.53,8.94A11.79,11.79,0,0,0,236.44,43a11.65,11.65,0,0,0,4.78,4.3A15.37,15.37,0,0,0,248.21,48.83Zm14.13-45h9v51H263c-.11-1.12-.24-2.51-.4-4.16s-.24-3.14-.24-4.46Z"/><path d="M331.64,18.38H359.9V25H331.64Zm9.63-9.78h9V54.74h-9Z"/><path d="M383.19,39h8.91a8.46,8.46,0,0,0,2.37,4.86,13.86,13.86,0,0,0,5.46,3.36,23.59,23.59,0,0,0,7.83,1.2,20.36,20.36,0,0,0,6.51-.88,8,8,0,0,0,3.81-2.44,5.77,5.77,0,0,0,1.24-3.69,4,4,0,0,0-1.48-3.32,12.63,12.63,0,0,0-4.54-2q-3-.84-7.79-1.65a62.73,62.73,0,0,1-7.63-1.75,30.91,30.91,0,0,1-6.62-2.77,13.77,13.77,0,0,1-4.62-4.13A10,10,0,0,1,385,20a10.93,10.93,0,0,1,2.37-6.86,15.42,15.42,0,0,1,7-4.82,32.25,32.25,0,0,1,11.32-1.75q10.2,0,15.58,4.27a13.56,13.56,0,0,1,5.22,11.57h-8.75a7.6,7.6,0,0,0-3.7-6.64,16.89,16.89,0,0,0-8.75-2,18.26,18.26,0,0,0-7.95,1.54,5.14,5.14,0,0,0-3.21,5,4.2,4.2,0,0,0,.76,2.52,6.51,6.51,0,0,0,2.53,1.9,26.72,26.72,0,0,0,4.86,1.6q3.09.76,7.59,1.64a51.9,51.9,0,0,1,7.23,1.61A25.59,25.59,0,0,1,423,32,11.43,11.43,0,0,1,427,36a11.21,11.21,0,0,1,1.45,5.91A11.82,11.82,0,0,1,426.15,49a14.75,14.75,0,0,1-6.87,4.89,33.48,33.48,0,0,1-11.92,1.79,34.55,34.55,0,0,1-9.68-1.21,25.15,25.15,0,0,1-7-3.14A18.76,18.76,0,0,1,386,47.15a14.6,14.6,0,0,1-2.41-4.42A8.28,8.28,0,0,1,383.19,39Z"/><path d="M454.42,55.54a20.91,20.91,0,0,1-10-2.41,18.69,18.69,0,0,1-7.23-6.68,18,18,0,0,1-2.69-9.82,18.1,18.1,0,0,1,2.73-10A18.87,18.87,0,0,1,444.62,20a22.31,22.31,0,0,1,10.44-2.41q6.42,0,10.19,2.56A14,14,0,0,1,470.63,27a27.17,27.17,0,0,1,1.61,9.63,22.74,22.74,0,0,1-1,6.32,20.44,20.44,0,0,1-3,6.17,15.41,15.41,0,0,1-5.46,4.63A17.85,17.85,0,0,1,454.42,55.54Zm2.72-6.71a17.22,17.22,0,0,0,7.67-1.57,11.23,11.23,0,0,0,4.82-4.35,12,12,0,0,0,1.65-6.28,12.29,12.29,0,0,0-1.69-6.6,11.1,11.1,0,0,0-4.82-4.24,17.68,17.68,0,0,0-7.63-1.49q-6.42,0-9.95,3.43a11.84,11.84,0,0,0-3.54,8.9A11.8,11.8,0,0,0,445.38,43a11.59,11.59,0,0,0,4.78,4.3A15.35,15.35,0,0,0,457.14,48.83Zm14.14-30.45h9V54.74h-8.35c-.21-1.85-.38-3.44-.48-4.78s-.16-2.62-.16-3.84Z"/><path d="M487.26,18.82h29v6.57h-29Zm23-15h6.59v7h-5a11.9,11.9,0,0,0-3.9.44,4.66,4.66,0,0,0-2.57,1.9,7.13,7.13,0,0,0-.92,3.94V54.74h-9V16.34a13.17,13.17,0,0,1,1.76-7.15,10.33,10.33,0,0,1,5.1-4.09A21.44,21.44,0,0,1,510.3,3.78Z"/><path d="M540.09,55.54a20.9,20.9,0,0,1-10-2.41,18.69,18.69,0,0,1-7.23-6.68,18,18,0,0,1-2.69-9.82,18.1,18.1,0,0,1,2.73-10A18.87,18.87,0,0,1,530.3,20a22.31,22.31,0,0,1,10.44-2.41q6.42,0,10.19,2.56A14,14,0,0,1,556.31,27a27.4,27.4,0,0,1,1.61,9.63A22.74,22.74,0,0,1,557,43a20.44,20.44,0,0,1-3,6.17,15.35,15.35,0,0,1-5.47,4.63A17.8,17.8,0,0,1,540.09,55.54Zm2.73-6.71a17.22,17.22,0,0,0,7.67-1.57,11.23,11.23,0,0,0,4.82-4.35A12,12,0,0,0,557,36.63a12.38,12.38,0,0,0-1.69-6.6,11.1,11.1,0,0,0-4.82-4.24,17.71,17.71,0,0,0-7.63-1.49q-6.42,0-10,3.43a11.84,11.84,0,0,0-3.54,8.9A11.8,11.8,0,0,0,531.06,43a11.59,11.59,0,0,0,4.78,4.3A15.35,15.35,0,0,0,542.82,48.83ZM557,18.38h9V54.74H557.6c-.22-1.85-.38-3.44-.48-4.78s-.16-2.62-.16-3.84Z"/><path d="M575.75,18.38h8.91V54.74h-8.91Zm23.36,6.94A15.39,15.39,0,0,0,591.68,27a15.74,15.74,0,0,0-7.5,8.76l-.08-4.09a15,15,0,0,1,.56-2.45,21.4,21.4,0,0,1,1.48-3.61,17.15,17.15,0,0,1,2.73-3.83,13.36,13.36,0,0,1,4.26-3,14.15,14.15,0,0,1,6-1.17Z"/><path d="M606.42,18.38h9V54.74h-9Z"/><circle cx="76.65" cy="37.89" r="17.17"/><ellipse class="cls-1" cx="83.69" cy="35.25" rx="2.19" ry="1.17" transform="translate(-5.61 18.75) rotate(-12.37)"/><ellipse class="cls-1" cx="69.58" cy="35.25" rx="1.17" ry="2.19" transform="translate(20.24 95.66) rotate(-77.63)"/><ellipse class="cls-1" cx="64.31" cy="43.11" rx="0.84" ry="1.42" transform="translate(-12.8 36.16) rotate(-28.69)"/><ellipse class="cls-1" cx="66.06" cy="46.19" rx="0.6" ry="1.02" transform="translate(-14.23 53.35) rotate(-40.05)"/><ellipse class="cls-1" cx="63.83" cy="34.81" rx="1.42" ry="0.84" transform="translate(3.24 75) rotate(-62.17)"/><ellipse class="cls-1" cx="65.62" cy="31.11" rx="1.02" ry="0.6" transform="translate(-0.42 61.32) rotate(-49.95)"/><ellipse class="cls-1" cx="67.54" cy="28.64" rx="0.72" ry="0.42" transform="translate(2.16 61.91) rotate(-49.95)"/><ellipse class="cls-1" cx="69.32" cy="26.99" rx="0.6" ry="0.35" transform="translate(4.06 62.68) rotate(-49.95)"/><ellipse class="cls-1" cx="72.63" cy="27.24" rx="1.02" ry="0.6" transform="translate(5.04 65.31) rotate(-49.95)"/><ellipse class="cls-1" cx="63.48" cy="39.07" rx="1.89" ry="1.14" transform="translate(19.8 99.47) rotate(-85.74)"/><ellipse class="cls-1" cx="80.7" cy="27.24" rx="0.59" ry="1.01" transform="translate(0.78 56.69) rotate(-38.88)"/><ellipse class="cls-1" cx="89.64" cy="43.11" rx="1.41" ry="0.83" transform="translate(9.83 102.48) rotate(-62.33)"/><ellipse class="cls-1" cx="87.93" cy="46.19" rx="1.01" ry="0.59" transform="translate(-3.22 85.65) rotate(-51.12)"/><ellipse class="cls-1" cx="90.11" cy="34.81" rx="0.83" ry="1.41" transform="translate(-6.01 44.44) rotate(-26.84)"/><ellipse class="cls-1" cx="88.36" cy="31.11" rx="0.59" ry="1.01" transform="translate(0.05 62.35) rotate(-38.88)"/><ellipse class="cls-1" cx="86.48" cy="28.64" rx="0.41" ry="0.71" transform="translate(1.18 60.62) rotate(-38.88)"/><ellipse class="cls-1" cx="84.73" cy="26.99" rx="0.35" ry="0.6" transform="translate(1.83 59.16) rotate(-38.88)"/><ellipse class="cls-1" cx="90.45" cy="39.07" rx="1.12" ry="1.89" transform="translate(-2.55 6.54) rotate(-4.09)"/><path class="cls-1" d="M76.93,57.39c-11.89,0-21.56-8.75-21.56-19.5S65,18.38,76.93,18.38s21.56,8.75,21.56,19.51S88.82,57.39,76.93,57.39Zm0-34.78C67.62,22.61,60,29.46,60,37.89s7.58,15.28,16.89,15.28,16.89-6.86,16.89-15.28S86.24,22.61,76.93,22.61Z"/><path class="cls-1" d="M78.7,51.11a8.85,8.85,0,0,1-1.35.15,5.48,5.48,0,0,1-.7,0V52h0c.39-.07.78-.11,1.17-.19a1.72,1.72,0,0,0,1-.41c.06,0,.17-.12.12-.2S78.81,51.09,78.7,51.11Z"/><path class="cls-1" d="M81.07,50a.08.08,0,0,0-.06,0c-.34-.06-.67-.1-1-.17a4.13,4.13,0,0,1-1.24-.37,3.21,3.21,0,0,0-.93-.39.91.91,0,0,1-.42-.14,1,1,0,0,1-.37-.73c0-.16-.1-.35,0-.48A2.3,2.3,0,0,1,78,47.2s.11,0,.11-.08-.07-.07-.12-.08-.14-.1-.09-.19l.12-.16a2.36,2.36,0,0,1,1.21-1,5.71,5.71,0,0,0,1.31-.77l0-.07-.09,0c-.19,0-.26-.09-.11-.22a.32.32,0,0,0,0-.55s0-.07-.06-.09a1.11,1.11,0,0,0-.58-.27,4,4,0,0,0-1,.17,10.38,10.38,0,0,1-1.84.3,1.61,1.61,0,0,1-.31,0v3.51a.11.11,0,0,1,.07.06,2.05,2.05,0,0,1,0,.7.15.15,0,0,1-.12.09V49.6H77c.21,0,.41,0,.45-.26a.07.07,0,0,1,.07,0s.06,0,.07,0a.87.87,0,0,0,.46.4,2.12,2.12,0,0,1,.63.38.52.52,0,0,0,.48.17.39.39,0,0,1,.38.11,1.12,1.12,0,0,1,.36,0h0a1.44,1.44,0,0,0,1-.36A1.25,1.25,0,0,1,81,50,.09.09,0,0,0,81.07,50Z"/><path class="cls-1" d="M88,33.72a1.57,1.57,0,0,1-.73.2c-.59,0-1.15-.18-1.74-.2a9.15,9.15,0,0,0-1.66-.08,5.17,5.17,0,0,0-1.72.42c-.11.06-.13,0-.13-.07,0-.51,0-1,0-1.54s-.06-.86-.1-1.29a2.54,2.54,0,0,0-.3-1.17,1.89,1.89,0,0,0-.56-.35c-.32,0-.75.25-.77.51a7.43,7.43,0,0,0,0,1.25,9.33,9.33,0,0,0,.29,1.27,6.19,6.19,0,0,0,.3,1,2.92,2.92,0,0,1,.27.63c0,.06,0,.14,0,.18a1.45,1.45,0,0,1-.22.6l0,0c0,.11,0,.21-.08.32a.76.76,0,0,1,0,.36,6.33,6.33,0,0,0-.25,1.78,8.69,8.69,0,0,0,0,1.25,10.94,10.94,0,0,0,.27,1.7,1.81,1.81,0,0,0,.61,1,9.94,9.94,0,0,1,1.17,1.17,5.59,5.59,0,0,1,1.07,1.55,3.16,3.16,0,0,1,.33,1.11,3.27,3.27,0,0,1-.08.76,1.58,1.58,0,0,1-.23.56,3.58,3.58,0,0,1-.63.72,1.66,1.66,0,0,1-.74.46,4.69,4.69,0,0,1-.78.14s0,0,0,0c.2,0,.4.08.6.09a5.35,5.35,0,0,0,1-.11l0,0h0v0l0,0c-.15.22-.28.45-.45.66a.79.79,0,0,0,.07,1.28l.38-.58a1.4,1.4,0,0,0,.3-.58,1.07,1.07,0,0,1,.46-.66,1.78,1.78,0,0,0,.49-.41c.09-.15.19-.29.28-.43a2.76,2.76,0,0,0,.55-1.45c0-.63-.12-1.24-.14-1.86a1.18,1.18,0,0,0-.09-.49,4.41,4.41,0,0,0-.64-.93c-.1-.13-.21-.25-.29-.38a1.07,1.07,0,0,1-.16-.14l-.1-.06L83.7,42h0s-.06-.05-.06-.07v0l-.12-.15h0a2.28,2.28,0,0,1-.69-.73.76.76,0,0,0-.81-.55c-.09,0-.09-.08-.07-.13s.09,0,.14,0,.14,0,.17,0a.14.14,0,0,0,0-.2,1,1,0,0,1-.42-.93,1.8,1.8,0,0,0-.08-.39,1.52,1.52,0,0,1-.1-.66,5.18,5.18,0,0,0,0-1,.88.88,0,0,1,.07-.32.1.1,0,0,1,.1-.07h0a.24.24,0,0,1,.21,0,3.54,3.54,0,0,1,.44.11l.12.08s0,0,.08,0a1.91,1.91,0,0,0,1.45-.15,3.76,3.76,0,0,0,1-.68,6.93,6.93,0,0,0,.72-.82c.35-.36.6-.8,1.19-.93a2.53,2.53,0,0,0,.44-.21h0l.28-.2a.75.75,0,0,0,.17-.19Zm-3.08,1.67a2.09,2.09,0,0,1-.88.86,1.63,1.63,0,0,1-.66.07,3.41,3.41,0,0,1-1.09-.2l-.41-.07c-.14,0-.16-.09-.14-.18s.12-.35.18-.52,0-.05.1-.05a7.72,7.72,0,0,0,1.86,0l.93-.09C84.93,35.23,84.94,35.32,84.89,35.39Zm.8-.24c-.08.05-.2.06-.23.16a.1.1,0,0,1-.08,0s0,0,0,0c.15-.13.23-.31.48-.35A.28.28,0,0,1,85.69,35.15Z"/><path class="cls-1" d="M76.71,47.66V44.15a1.61,1.61,0,0,1-.31,0,10.24,10.24,0,0,1-1.84-.3,4,4,0,0,0-1-.17,1.08,1.08,0,0,0-.57.27s0,.06-.06.09a.33.33,0,0,0,0,.55c.16.13.09.2-.1.22l-.09,0a.15.15,0,0,0,0,.07,5.71,5.71,0,0,0,1.31.77,2.44,2.44,0,0,1,1.21,1l.12.16c0,.09.08.17-.09.19s-.12,0-.12.08.06.06.11.08a2.3,2.3,0,0,1,.92.43c.14.13.07.32,0,.48a1,1,0,0,1-.37.73,1,1,0,0,1-.42.14,3.1,3.1,0,0,0-.93.39,4.13,4.13,0,0,1-1.24.37c-.33.07-.67.11-1,.17a.08.08,0,0,0-.06,0,.09.09,0,0,0,0,0,1.25,1.25,0,0,1,.12.08,1.37,1.37,0,0,0,.93.35,2.67,2.67,0,0,1,.48-.08.41.41,0,0,1,.33-.07.52.52,0,0,0,.48-.17,2.12,2.12,0,0,1,.63-.38.87.87,0,0,0,.46-.4s0,0,.07,0a.07.07,0,0,1,.07,0c0,.22.24.26.45.26h.36V48.51c-.07,0-.12,0-.12-.09a2.05,2.05,0,0,1,0-.7S76.67,47.67,76.71,47.66Z"/><path class="cls-1" d="M76,51.26a8.85,8.85,0,0,1-1.35-.15c-.12,0-.24,0-.3,0s.06.15.12.2a1.72,1.72,0,0,0,1,.41c.39.08.78.12,1.17.19h0v-.69A5.48,5.48,0,0,1,76,51.26Z"/><path class="cls-1" d="M73.13,30.15c0-.26-.45-.51-.77-.51a2.08,2.08,0,0,0-.57.35,2.42,2.42,0,0,0-.29,1.17c0,.43,0,.86-.1,1.29s0,1,0,1.54c0,.09,0,.13-.13.07a5.17,5.17,0,0,0-1.72-.42,9.3,9.3,0,0,0-1.67.08c-.58,0-1.14.2-1.73.2a1.5,1.5,0,0,1-.37-.05l.11.12.2.13,0,0,.15.09a.3.3,0,0,1,.13.09l.06,0a2.7,2.7,0,0,1,1,.88,8.07,8.07,0,0,0,.73.82,3.76,3.76,0,0,0,1,.68,1.91,1.91,0,0,0,1.45.15.3.3,0,0,0,.1,0,.13.13,0,0,1,.1,0l.09,0a.68.68,0,0,1,.56-.08h0a.1.1,0,0,1,.11.07.88.88,0,0,1,.07.32,4.54,4.54,0,0,0,0,1,1.69,1.69,0,0,1-.1.66,1.8,1.8,0,0,0-.08.39,1,1,0,0,1-.42.93.14.14,0,0,0,0,.2s.11,0,.16,0,.13,0,.15,0,0,.13-.07.13a.78.78,0,0,0-.82.55,2.11,2.11,0,0,1-.66.71l0,.06-.1.08a.35.35,0,0,0,0,.06s0,0-.06.07l0,0a1.89,1.89,0,0,0-.3.25,2.61,2.61,0,0,1-.31.43,4.41,4.41,0,0,0-.64.93,1.18,1.18,0,0,0-.09.49c0,.62-.17,1.23-.14,1.86a2.76,2.76,0,0,0,.55,1.45c.09.14.19.28.28.43a1.78,1.78,0,0,0,.49.41,1.07,1.07,0,0,1,.46.66,1.4,1.4,0,0,0,.3.58l.38.58c.46-.37.47-.79.07-1.28-.17-.21-.3-.44-.45-.66l0,0v0h0l0,0a5.24,5.24,0,0,0,1,.11,6,6,0,0,0,.61-.09s0,0,0,0a4.69,4.69,0,0,1-.78-.14,1.61,1.61,0,0,1-.74-.46,3.58,3.58,0,0,1-.63-.72,1.42,1.42,0,0,1-.23-.56,3.27,3.27,0,0,1-.08-.76,3.16,3.16,0,0,1,.33-1.11,5.77,5.77,0,0,1,1.06-1.55A10,10,0,0,1,72,41.59a1.87,1.87,0,0,0,.61-1,10.94,10.94,0,0,0,.27-1.7,8.69,8.69,0,0,0,0-1.25,6.71,6.71,0,0,0-.25-1.78.8.8,0,0,1,0-.34v0a.57.57,0,0,0,0-.13l-.18-.45c-.06-.12-.14-.23-.19-.35a.15.15,0,0,1,0-.19,2.5,2.5,0,0,1,.27-.63,6.19,6.19,0,0,0,.3-1,8,8,0,0,0,.28-1.27A6.51,6.51,0,0,0,73.13,30.15ZM68,35.32s-.08,0-.08,0-.15-.11-.23-.16a.28.28,0,0,1-.15-.23c.25,0,.33.22.47.35S68,35.32,68,35.32Zm3.52.73-.4.07a3.41,3.41,0,0,1-1.09.2,1.63,1.63,0,0,1-.66-.07,2.09,2.09,0,0,1-.88-.86c0-.07,0-.16.11-.15.31,0,.62,0,.92.09a7.79,7.79,0,0,0,1.87,0s.08,0,.1.05.13.34.18.52S71.65,36,71.5,36.05Z"/><circle class="cls-2" cx="303.61" cy="37.89" r="17.17"/><ellipse class="cls-1" cx="310.65" cy="35.25" rx="2.19" ry="1.17" transform="translate(-0.34 67.38) rotate(-12.37)"/><ellipse class="cls-1" cx="296.55" cy="35.25" rx="1.17" ry="2.19" transform="translate(198.57 317.36) rotate(-77.63)"/><ellipse class="cls-1" cx="291.28" cy="43.11" rx="0.84" ry="1.42" transform="translate(15.05 145.1) rotate(-28.69)"/><ellipse class="cls-1" cx="293.03" cy="46.19" rx="0.6" ry="1.02" transform="translate(39.01 199.4) rotate(-40.05)"/><ellipse class="cls-1" cx="290.79" cy="34.81" rx="1.42" ry="0.84" transform="translate(124.24 275.71) rotate(-62.17)"/><ellipse class="cls-1" cx="292.59" cy="31.11" rx="1.02" ry="0.6" transform="translate(80.49 235.05) rotate(-49.95)"/><ellipse class="cls-1" cx="294.5" cy="28.64" rx="0.72" ry="0.42" transform="translate(83.07 235.64) rotate(-49.95)"/><ellipse class="cls-1" cx="296.29" cy="26.99" rx="0.6" ry="0.35" transform="translate(84.97 236.41) rotate(-49.95)"/><ellipse class="cls-1" cx="299.6" cy="27.24" rx="1.02" ry="0.6" transform="translate(85.95 239.04) rotate(-49.95)"/><ellipse class="cls-1" cx="290.45" cy="39.07" rx="1.89" ry="1.14" transform="translate(229.89 325.81) rotate(-85.74)"/><ellipse class="cls-1" cx="307.66" cy="27.24" rx="0.59" ry="1.01" transform="translate(51.05 199.14) rotate(-38.88)"/><ellipse class="cls-1" cx="316.6" cy="43.11" rx="1.41" ry="0.83" transform="translate(131.38 303.48) rotate(-62.33)"/><ellipse class="cls-1" cx="314.89" cy="46.19" rx="1.01" ry="0.59" transform="translate(81.29 262.33) rotate(-51.12)"/><ellipse class="cls-1" cx="317.08" cy="34.81" rx="0.83" ry="1.41" transform="translate(18.44 146.91) rotate(-26.84)"/><ellipse class="cls-1" cx="315.32" cy="31.11" rx="0.59" ry="1.01" transform="translate(50.32 204.81) rotate(-38.88)"/><ellipse class="cls-1" cx="313.44" cy="28.64" rx="0.41" ry="0.71" transform="translate(51.46 203.08) rotate(-38.88)"/><ellipse class="cls-1" cx="311.69" cy="26.99" rx="0.35" ry="0.6" transform="translate(52.11 201.62) rotate(-38.88)"/><ellipse class="cls-1" cx="317.42" cy="39.07" rx="1.12" ry="1.89" transform="translate(-1.98 22.71) rotate(-4.09)"/><path class="cls-1" d="M303.89,57.39c-11.88,0-21.56-8.75-21.56-19.5S292,18.38,303.89,18.38s21.56,8.75,21.56,19.51S315.78,57.39,303.89,57.39Zm0-34.78c-9.31,0-16.89,6.85-16.89,15.28s7.58,15.28,16.89,15.28,16.9-6.86,16.9-15.28S313.21,22.61,303.89,22.61Z"/><path class="cls-1" d="M305.66,51.11a8.71,8.71,0,0,1-1.35.15,5.45,5.45,0,0,1-.7,0V52h.05c.39-.07.79-.11,1.17-.19a1.7,1.7,0,0,0,1-.41c.06,0,.17-.12.12-.2S305.78,51.09,305.66,51.11Z"/><path class="cls-1" d="M308,50a.08.08,0,0,0-.06,0c-.33-.06-.67-.1-1-.17a4,4,0,0,1-1.24-.37,3.27,3.27,0,0,0-.94-.39,1,1,0,0,1-.42-.14,1,1,0,0,1-.37-.73c0-.16-.09-.35.05-.48a2.37,2.37,0,0,1,.92-.43c.06,0,.12,0,.12-.08S305,47.05,305,47s-.14-.1-.08-.19.08-.1.11-.16a2.44,2.44,0,0,1,1.21-1,5.51,5.51,0,0,0,1.31-.77.15.15,0,0,0,.05-.07l-.09,0c-.19,0-.26-.09-.1-.22a.33.33,0,0,0,0-.55s0-.07-.06-.09a1.08,1.08,0,0,0-.57-.27,4,4,0,0,0-1,.17,10.13,10.13,0,0,1-1.83.3,1.71,1.71,0,0,1-.32,0v3.51s.07,0,.07.06a1.83,1.83,0,0,1,.05.7s-.05.08-.12.09V49.6H304c.21,0,.42,0,.46-.26,0,0,0,0,.06,0s.06,0,.07,0a1,1,0,0,0,.46.4,2,2,0,0,1,.63.38.54.54,0,0,0,.49.17.38.38,0,0,1,.37.11,1.12,1.12,0,0,1,.36,0h0a1.46,1.46,0,0,0,1-.36S308,50,308,50A.09.09,0,0,0,308,50Z"/><path class="cls-1" d="M314.93,33.72a1.5,1.5,0,0,1-.73.2c-.59,0-1.15-.18-1.73-.2a9.3,9.3,0,0,0-1.67-.08,5.17,5.17,0,0,0-1.72.42c-.11.06-.13,0-.13-.07,0-.51,0-1,0-1.54s-.05-.86-.1-1.29a2.42,2.42,0,0,0-.29-1.17,2.19,2.19,0,0,0-.56-.35c-.33,0-.76.25-.77.51a5.79,5.79,0,0,0,0,1.25,7.07,7.07,0,0,0,.29,1.27,4.75,4.75,0,0,0,.3,1,3.52,3.52,0,0,1,.27.63c0,.06,0,.14,0,.18a1.34,1.34,0,0,1-.23.6s0,0,0,0a1.87,1.87,0,0,1-.08.32.76.76,0,0,1,0,.36,7.15,7.15,0,0,0-.25,1.78,8.69,8.69,0,0,0,0,1.25,12.27,12.27,0,0,0,.27,1.7,1.93,1.93,0,0,0,.61,1,9.32,9.32,0,0,1,1.18,1.17,6,6,0,0,1,1.07,1.55,3.36,3.36,0,0,1,.32,1.11,3.27,3.27,0,0,1-.08.76,1.42,1.42,0,0,1-.23.56,3.58,3.58,0,0,1-.63.72,1.61,1.61,0,0,1-.74.46,4.69,4.69,0,0,1-.78.14s0,0,.06,0c.2,0,.4.08.6.09a5.24,5.24,0,0,0,1-.11l0,0h0v0l0,0c-.15.22-.28.45-.45.66-.4.49-.39.91.07,1.28l.38-.58a1.2,1.2,0,0,0,.3-.58,1.07,1.07,0,0,1,.46-.66c.17-.13.39-.23.49-.41s.19-.29.29-.43a2.84,2.84,0,0,0,.54-1.45c0-.63-.11-1.24-.13-1.86a1.19,1.19,0,0,0-.1-.49,4.76,4.76,0,0,0-.63-.93,2.4,2.4,0,0,1-.29-.38.79.79,0,0,1-.17-.14l-.1-.06-.09-.07h0s-.06-.05-.06-.07v0l-.11-.15h0a2.08,2.08,0,0,1-.69-.73.77.77,0,0,0-.82-.55c-.09,0-.08-.08-.07-.13s.1,0,.15,0,.14,0,.16,0a.14.14,0,0,0,0-.2,1,1,0,0,1-.42-.93,2.66,2.66,0,0,0-.07-.39,1.53,1.53,0,0,1-.11-.66,4.54,4.54,0,0,0,.05-1,1.14,1.14,0,0,1,.07-.32.1.1,0,0,1,.11-.07h0a.24.24,0,0,1,.21,0,3.15,3.15,0,0,1,.44.11l.12.08s.05,0,.08,0a1.91,1.91,0,0,0,1.45-.15,3.76,3.76,0,0,0,1-.68,8.07,8.07,0,0,0,.73-.82c.34-.36.59-.8,1.19-.93a2.84,2.84,0,0,0,.43-.21h0l.29-.2a1,1,0,0,0,.16-.19Zm-3.08,1.67a2.12,2.12,0,0,1-.87.86,1.68,1.68,0,0,1-.67.07,3.41,3.41,0,0,1-1.09-.2l-.4-.07c-.15,0-.17-.09-.14-.18s.12-.35.17-.52,0-.05.1-.05a7.79,7.79,0,0,0,1.87,0c.3,0,.61-.06.92-.09C311.9,35.23,311.9,35.32,311.85,35.39Zm.8-.24c-.07.05-.2.06-.23.16s-.05,0-.08,0,0,0,0,0,.22-.31.48-.35A.32.32,0,0,1,312.65,35.15Z"/><path class="cls-1" d="M303.67,47.66V44.15a1.63,1.63,0,0,1-.31,0,10.38,10.38,0,0,1-1.84-.3,4,4,0,0,0-1-.17,1.11,1.11,0,0,0-.58.27s0,.06-.06.09a.33.33,0,0,0,.05.55c.15.13.09.2-.1.22l-.1,0,.05.07a5.57,5.57,0,0,0,1.32.77,2.44,2.44,0,0,1,1.21,1c0,.06.08.11.11.16s.09.17-.08.19-.13,0-.13.08.06.06.12.08a2.44,2.44,0,0,1,.92.43c.14.13.06.32,0,.48a1,1,0,0,1-.37.73.91.91,0,0,1-.42.14,3.21,3.21,0,0,0-.93.39,4,4,0,0,1-1.24.37c-.33.07-.66.11-1,.17a.07.07,0,0,0-.06,0s0,0,0,0l.12.08a1.39,1.39,0,0,0,.93.35,2.67,2.67,0,0,1,.48-.08.41.41,0,0,1,.33-.07.54.54,0,0,0,.49-.17,1.89,1.89,0,0,1,.63-.38.89.89,0,0,0,.45-.4s0,0,.07,0a.07.07,0,0,1,.07,0c0,.22.24.26.46.26h.35V48.51a.15.15,0,0,1-.12-.09,2.34,2.34,0,0,1,.05-.7A.11.11,0,0,1,303.67,47.66Z"/><path class="cls-1" d="M303,51.26a8.58,8.58,0,0,1-1.35-.15c-.12,0-.25,0-.31,0s.06.15.12.2a1.75,1.75,0,0,0,1,.41c.39.08.78.12,1.17.19h.05v-.69A5.3,5.3,0,0,1,303,51.26Z"/><path class="cls-1" d="M300.09,30.15c0-.26-.45-.51-.77-.51a2,2,0,0,0-.56.35,2.42,2.42,0,0,0-.29,1.17c-.05.43-.06.86-.11,1.29s0,1,0,1.54c0,.09,0,.13-.13.07a5.17,5.17,0,0,0-1.71-.42,9.21,9.21,0,0,0-1.67.08c-.59,0-1.15.2-1.73.2a1.5,1.5,0,0,1-.37-.05l.1.12a1.37,1.37,0,0,1,.2.13l0,0,.16.09a.38.38,0,0,1,.13.09.1.1,0,0,0,0,0,2.73,2.73,0,0,1,1,.88,6.93,6.93,0,0,0,.72.82,3.82,3.82,0,0,0,1,.68,1.9,1.9,0,0,0,1.45.15.25.25,0,0,0,.09,0,.15.15,0,0,1,.11,0l.08,0a.7.7,0,0,1,.57-.08h0a.1.1,0,0,1,.1.07.71.71,0,0,1,.07.32,5.19,5.19,0,0,0,.06,1,1.53,1.53,0,0,1-.11.66,1.8,1.8,0,0,0-.08.39,1,1,0,0,1-.42.93c-.07.05-.05.14,0,.2s.11,0,.17,0,.12,0,.14,0,0,.13-.07.13a.77.77,0,0,0-.81.55,2.22,2.22,0,0,1-.66.71l-.05.06-.09.08a.08.08,0,0,0,0,.06s0,0-.06.07l-.05,0a1.89,1.89,0,0,0-.3.25,2.13,2.13,0,0,1-.31.43,4.41,4.41,0,0,0-.64.93,1.18,1.18,0,0,0-.09.49c0,.62-.17,1.23-.14,1.86a2.85,2.85,0,0,0,.55,1.45,4,4,0,0,1,.28.43,1.83,1.83,0,0,0,.5.41,1.07,1.07,0,0,1,.46.66,1.27,1.27,0,0,0,.29.58c.14.19.26.39.38.58a.79.79,0,0,0,.07-1.28c-.17-.21-.3-.44-.45-.66l0,0v0h0l0,0a5.45,5.45,0,0,0,1,.11c.2,0,.4-.06.6-.09,0,0,0,0,0,0a4.69,4.69,0,0,1-.78-.14,1.66,1.66,0,0,1-.74-.46,4.34,4.34,0,0,1-.63-.72,1.56,1.56,0,0,1-.22-.56,2.81,2.81,0,0,1-.08-.76,3,3,0,0,1,.32-1.11,5.59,5.59,0,0,1,1.07-1.55A9.94,9.94,0,0,1,299,41.59a1.81,1.81,0,0,0,.61-1,10.94,10.94,0,0,0,.27-1.7,6.53,6.53,0,0,0,0-1.25,6.33,6.33,0,0,0-.25-1.78,1,1,0,0,1,0-.34v0a.57.57,0,0,0,0-.13l-.17-.45c-.07-.12-.14-.23-.2-.35a.16.16,0,0,1,0-.19,2.92,2.92,0,0,1,.27-.63,6.19,6.19,0,0,0,.3-1,9.33,9.33,0,0,0,.29-1.27A6.51,6.51,0,0,0,300.09,30.15Zm-5.15,5.17a.11.11,0,0,1-.08,0c0-.1-.15-.11-.23-.16a.31.31,0,0,1-.15-.23c.25,0,.33.22.48.35S295,35.32,294.94,35.32Zm3.53.73-.41.07a3.4,3.4,0,0,1-1.08.2,1.68,1.68,0,0,1-.67-.07,2,2,0,0,1-.87-.86c-.05-.07-.05-.16.11-.15l.92.09a7.72,7.72,0,0,0,1.86,0c.05,0,.09,0,.1.05s.13.34.18.52S298.61,36,298.47,36.05Z"/><ellipse class="cls-1" cx="610.92" cy="6.89" rx="7.63" ry="4.44" transform="translate(281.05 521.14) rotate(-57.97)"/></g></g></svg>