<svg xmlns="http://www.w3.org/2000/svg" viewBox="0 0 114.83 105.32"><defs><style>.cls-1{fill:#e6007a;}</style></defs><g id="Layer_2" data-name="Layer 2"><g id="Layer_2-2" data-name="Layer 2"><ellipse cx="57.42" cy="52.66" rx="57.42" ry="52.66"/><ellipse class="cls-1" cx="75.59" cy="45.54" rx="5.92" ry="3.15" transform="translate(-8 17.25) rotate(-12.37)"/><ellipse class="cls-1" cx="37.5" cy="45.54" rx="3.15" ry="5.92" transform="translate(-15.02 72.42) rotate(-77.63)"/><ellipse class="cls-1" cx="23.27" cy="66.78" rx="2.28" ry="3.83" transform="translate(-29.2 19.37) rotate(-28.69)"/><ellipse class="cls-1" cx="28" cy="75.08" rx="1.61" ry="2.74" transform="translate(-41.75 35.63) rotate(-40.05)"/><ellipse class="cls-1" cx="21.97" cy="44.36" rx="3.83" ry="2.28" transform="translate(-27.52 43.08) rotate(-62.17)"/><ellipse class="cls-1" cx="26.81" cy="34.36" rx="2.74" ry="1.61" transform="translate(-16.74 32.77) rotate(-49.95)"/><ellipse class="cls-1" cx="31.99" cy="27.69" rx="1.93" ry="1.13" transform="translate(-9.79 34.36) rotate(-49.95)"/><ellipse class="cls-1" cx="36.81" cy="23.23" rx="1.63" ry="0.96" transform="translate(-4.66 36.45) rotate(-49.95)"/><ellipse class="cls-1" cx="45.75" cy="23.92" rx="2.74" ry="1.61" transform="translate(-2 43.54) rotate(-49.95)"/><ellipse class="cls-1" cx="21.04" cy="55.86" rx="5.11" ry="3.08" transform="translate(-36.23 72.68) rotate(-85.74)"/><ellipse class="cls-1" cx="67.52" cy="23.92" rx="1.59" ry="2.72" transform="translate(-0.05 47.68) rotate(-38.88)"/><ellipse class="cls-1" cx="91.67" cy="66.78" rx="3.82" ry="2.24" transform="translate(-10.04 116.94) rotate(-62.33)"/><ellipse class="cls-1" cx="87.04" cy="75.08" rx="2.72" ry="1.59" transform="translate(-26.04 95.71) rotate(-51.12)"/><ellipse class="cls-1" cx="92.94" cy="44.36" rx="2.24" ry="3.82" transform="translate(-10.02 46.74) rotate(-26.84)"/><ellipse class="cls-1" cx="88.2" cy="34.36" rx="1.59" ry="2.72" transform="translate(-2.03 62.97) rotate(-38.88)"/><ellipse class="cls-1" cx="83.12" cy="27.69" rx="1.12" ry="1.92" transform="translate(1.03 58.31) rotate(-38.88)"/><ellipse class="cls-1" cx="78.41" cy="23.23" rx="0.94" ry="1.62" transform="translate(2.79 54.36) rotate(-38.88)"/><ellipse class="cls-1" cx="93.86" cy="55.86" rx="3.02" ry="5.11" transform="translate(-3.74 6.83) rotate(-4.09)"/><path class="cls-1" d="M62.11,88.36a24.75,24.75,0,0,1-3.64.42c-.63,0-1.26,0-1.89,0v1.87l.14,0c1.05-.19,2.12-.28,3.15-.49a4.91,4.91,0,0,0,2.74-1.11c.16-.16.45-.34.33-.54S62.43,88.3,62.11,88.36Z"/><path class="cls-1" d="M68.51,85.23a.24.24,0,0,0-.16-.11c-.9-.16-1.8-.27-2.68-.46a10.92,10.92,0,0,1-3.35-1,8.53,8.53,0,0,0-2.52-1,2.43,2.43,0,0,1-1.14-.39,2.7,2.7,0,0,1-1-2c-.05-.43-.26-.94.12-1.3a6.66,6.66,0,0,1,2.49-1.17c.15,0,.31-.09.31-.22s-.2-.18-.34-.2c-.47-.06-.38-.28-.23-.51s.22-.28.31-.43a6.54,6.54,0,0,1,3.27-2.75,14.78,14.78,0,0,0,3.54-2.06.56.56,0,0,0,.14-.2,1.09,1.09,0,0,0-.25-.1c-.52-.06-.69-.25-.28-.58a.89.89,0,0,0,.13-1.49c-.08-.08-.09-.2-.17-.26a2.74,2.74,0,0,0-1.55-.72,10.48,10.48,0,0,0-2.77.45,26.63,26.63,0,0,1-5,.83,8,8,0,0,1-.85,0v9.48c.1,0,.18.07.19.15a5.42,5.42,0,0,1,.14,1.88.36.36,0,0,1-.33.26v2.93h1c.57,0,1.12-.11,1.23-.71,0-.09.1-.1.18-.09s.15,0,.19.08a2.37,2.37,0,0,0,1.24,1.08,5.43,5.43,0,0,1,1.69,1,1.4,1.4,0,0,0,1.32.46,1.12,1.12,0,0,1,1,.29,3.64,3.64,0,0,1,1,.15h0a3.94,3.94,0,0,0,2.69-1,1.44,1.44,0,0,1,.31-.22S68.53,85.26,68.51,85.23Z"/><path class="cls-1" d="M87.14,41.42a4,4,0,0,1-2,.53c-1.58,0-3.09-.48-4.67-.54A27,27,0,0,0,76,41.18a13.66,13.66,0,0,0-4.64,1.16c-.29.14-.34,0-.35-.19,0-1.39.09-2.78-.07-4.17-.14-1.15-.16-2.32-.28-3.48a6.74,6.74,0,0,0-.79-3.17,5.65,5.65,0,0,0-1.52-.93c-.87,0-2,.68-2.08,1.38a17.14,17.14,0,0,0,.09,3.36,24.36,24.36,0,0,0,.77,3.44,16.57,16.57,0,0,0,.82,2.8,8.34,8.34,0,0,1,.72,1.69c0,.17.11.4-.07.51a3.73,3.73,0,0,1-.61,1.6.35.35,0,0,1,0,.08,4.29,4.29,0,0,1-.23.87,2,2,0,0,1-.1,1,17.82,17.82,0,0,0-.67,4.8,21.06,21.06,0,0,0,0,3.37,30.18,30.18,0,0,0,.74,4.6,5,5,0,0,0,1.64,2.79,26.88,26.88,0,0,1,3.17,3.14A15.75,15.75,0,0,1,75.39,70a6.74,6.74,0,0,1,.66,5,4.05,4.05,0,0,1-.61,1.52,10.93,10.93,0,0,1-1.71,2,4.44,4.44,0,0,1-2,1.23,13.7,13.7,0,0,1-2.1.39c.07.06.1.12.14.13.54.08,1.08.2,1.63.23A11.51,11.51,0,0,0,74,80.2l.06,0,.09,0a.28.28,0,0,1,0,.09l0,0c-.4.59-.76,1.22-1.22,1.78-1.09,1.32-1,2.45.2,3.45.34-.52.66-1,1-1.56a3.53,3.53,0,0,0,.8-1.56,2.91,2.91,0,0,1,1.24-1.8c.46-.35,1-.6,1.34-1.1s.5-.77.76-1.16a7.63,7.63,0,0,0,1.48-3.93c.07-1.67-.31-3.33-.37-5a3.57,3.57,0,0,0-.25-1.33,12.64,12.64,0,0,0-1.72-2.52,6.34,6.34,0,0,1-.78-1,2.34,2.34,0,0,1-.45-.37,1.17,1.17,0,0,1-.27-.15,1.33,1.33,0,0,1-.26-.21l0,0c-.06-.06-.17-.13-.17-.19v0c-.11-.13-.21-.27-.31-.4l0,0a6,6,0,0,1-1.86-2A2.09,2.09,0,0,0,71,59.69c-.25,0-.24-.21-.2-.35s.26-.12.39-.1.38.14.45,0a.41.41,0,0,0-.08-.54,2.65,2.65,0,0,1-1.14-2.49,5.16,5.16,0,0,0-.2-1.07A4.07,4.07,0,0,1,70,53.35a13.25,13.25,0,0,0,.15-2.81,2.37,2.37,0,0,1,.18-.87.29.29,0,0,1,.29-.18h.11a.61.61,0,0,1,.57-.08,7.67,7.67,0,0,1,1.19.3,1.68,1.68,0,0,1,.32.22A1.42,1.42,0,0,0,73,50c1.41.62,2.72,0,3.91-.42a9.77,9.77,0,0,0,2.71-1.82,19.67,19.67,0,0,0,2-2.23c.92-1,1.59-2.14,3.2-2.51A5.81,5.81,0,0,0,86,42.45h0l.77-.53a1.94,1.94,0,0,0,.44-.52Zm-8.31,4.51a5.74,5.74,0,0,1-2.36,2.32,4.64,4.64,0,0,1-1.8.18,9.17,9.17,0,0,1-2.93-.54,8.16,8.16,0,0,0-1.1-.19c-.39,0-.45-.25-.38-.5.13-.47.32-.93.47-1.4,0-.14.14-.14.27-.12a21.78,21.78,0,0,0,5,.07c.83-.1,1.66-.16,2.49-.23C79,45.48,79,45.73,78.83,45.93ZM81,45.26c-.21.15-.54.17-.63.45a.39.39,0,0,1-.21,0,.17.17,0,0,1,0-.15c.39-.33.61-.83,1.29-.93A.74.74,0,0,1,81,45.26Z"/><path class="cls-1" d="M56.75,79.06V69.58a8.1,8.1,0,0,1-.85,0,26.63,26.63,0,0,1-5-.83,10.42,10.42,0,0,0-2.77-.45,2.72,2.72,0,0,0-1.54.72c-.08.06-.1.18-.17.26a.89.89,0,0,0,.12,1.49c.42.33.24.52-.28.58a1.63,1.63,0,0,0-.25.1c.05.07.07.15.14.2a15,15,0,0,0,3.54,2.06A6.54,6.54,0,0,1,53,76.44c.09.15.22.28.31.43s.24.45-.23.51c-.14,0-.33.06-.34.2s.17.18.32.22A6.62,6.62,0,0,1,55.54,79c.39.36.18.87.13,1.3a2.71,2.71,0,0,1-1,2,2.39,2.39,0,0,1-1.14.39,8.53,8.53,0,0,0-2.52,1,10.86,10.86,0,0,1-3.34,1c-.89.19-1.79.3-2.69.46a.26.26,0,0,0-.16.11s0,.1.1.14a1.81,1.81,0,0,1,.32.22,3.67,3.67,0,0,0,2.52.94,9.16,9.16,0,0,1,1.29-.23,1.15,1.15,0,0,1,.89-.18,1.39,1.39,0,0,0,1.31-.46,5.48,5.48,0,0,1,1.7-1,2.34,2.34,0,0,0,1.23-1.08c0-.08.11-.08.19-.08s.17,0,.18.09c.11.6.66.71,1.23.71h1V81.35a.37.37,0,0,1-.33-.26,5.42,5.42,0,0,1,.14-1.88C56.57,79.13,56.65,79.09,56.75,79.06Z"/><path class="cls-1" d="M54.87,88.78a24.72,24.72,0,0,1-3.65-.42c-.32-.06-.67-.09-.82.15s.17.38.32.54a4.94,4.94,0,0,0,2.74,1.11c1,.21,2.1.3,3.15.49l.14,0V88.8C56.12,88.82,55.5,88.82,54.87,88.78Z"/><path class="cls-1" d="M47.07,31.78c0-.7-1.2-1.38-2.08-1.38a5.44,5.44,0,0,0-1.51.93,6.62,6.62,0,0,0-.79,3.17c-.13,1.16-.15,2.33-.28,3.48-.16,1.39,0,2.78-.08,4.17,0,.24-.06.33-.35.19a13.6,13.6,0,0,0-4.64-1.16,26.88,26.88,0,0,0-4.5.23c-1.59.06-3.09.53-4.68.54a3.53,3.53,0,0,1-1-.14c.1.1.19.21.28.32s.36.23.54.35a.41.41,0,0,1,.1.09,2.91,2.91,0,0,1,.42.25.87.87,0,0,1,.35.25l.15.09c1.29.47,1.92,1.51,2.74,2.37a19.67,19.67,0,0,0,2,2.23,9.77,9.77,0,0,0,2.71,1.82c1.19.4,2.5,1,3.92.42a.88.88,0,0,0,.26-.1.29.29,0,0,1,.28-.08,1,1,0,0,1,.23-.12,1.8,1.8,0,0,1,1.53-.21h.11a.29.29,0,0,1,.28.18,2.39,2.39,0,0,1,.19.87,12.63,12.63,0,0,0,.15,2.81,4.39,4.39,0,0,1-.29,1.77,5.19,5.19,0,0,0-.21,1.07,2.64,2.64,0,0,1-1.13,2.49.41.41,0,0,0-.09.54c.07.16.29,0,.45,0s.34-.1.39.1,0,.35-.19.35a2.09,2.09,0,0,0-2.2,1.49,5.5,5.5,0,0,1-1.79,1.91.53.53,0,0,1-.12.15l-.25.22a.42.42,0,0,0,0,.16c0,.06-.11.13-.16.19l-.13-.1a4,4,0,0,0-.83.69A5.91,5.91,0,0,1,36,65.54a12.23,12.23,0,0,0-1.72,2.52A3.39,3.39,0,0,0,34,69.39c0,1.67-.44,3.33-.36,5a7.62,7.62,0,0,0,1.47,3.93c.26.39.53.76.76,1.16a4.65,4.65,0,0,0,1.34,1.1,2.87,2.87,0,0,1,1.24,1.8,3.53,3.53,0,0,0,.8,1.56c.36.51.69,1,1,1.56,1.24-1,1.28-2.13.19-3.45-.46-.56-.81-1.19-1.22-1.78l0,0s0-.06,0-.09l.09,0,.06,0a11.59,11.59,0,0,0,2.63.3c.54,0,1.08-.15,1.62-.23,0,0,.07-.07.14-.13a13.7,13.7,0,0,1-2.1-.39,4.49,4.49,0,0,1-2-1.23,10.88,10.88,0,0,1-1.7-2A3.9,3.9,0,0,1,37.29,75,6.61,6.61,0,0,1,38,70a15.71,15.71,0,0,1,2.88-4.2A27,27,0,0,1,44,62.67a5.09,5.09,0,0,0,1.64-2.79,31.44,31.44,0,0,0,.73-4.6,21.06,21.06,0,0,0,0-3.37,17.81,17.81,0,0,0-.66-4.8,2.11,2.11,0,0,1-.12-.92v-.08a2.06,2.06,0,0,0,0-.35c-.17-.4-.32-.81-.48-1.22s-.37-.62-.52-.95a.43.43,0,0,1,.07-.52,7.85,7.85,0,0,1,.73-1.69,17.51,17.51,0,0,0,.81-2.8A23.08,23.08,0,0,0,47,35.14,18,18,0,0,0,47.07,31.78Zm-13.9,14a.39.39,0,0,1-.21,0c-.08-.28-.41-.3-.63-.45a.79.79,0,0,1-.41-.6c.68.1.91.6,1.29.93C33.24,45.61,33.2,45.73,33.17,45.74Zm9.52,2a7.75,7.75,0,0,0-1.09.19,9.27,9.27,0,0,1-2.93.54,4.6,4.6,0,0,1-1.8-.18,5.7,5.7,0,0,1-2.37-2.32c-.13-.2-.12-.45.3-.41.83.07,1.67.13,2.49.23a21.77,21.77,0,0,0,5-.07c.14,0,.22,0,.27.12.15.47.34.93.48,1.4C43.15,47.45,43.08,47.66,42.69,47.7Z"/></g></g></svg>